#tb 0: 1/25
0,          0,          0,        1,   149760, 0x8ce7200b
0,          1,          1,        1,   149760, 0x73610669
0,          2,          2,        1,   149760, 0xc01620f4
0,          3,          3,        1,   149760, 0x847a4297
0,          4,          4,        1,   149760, 0x8b2db700
0,          5,          5,        1,   149760, 0x17b1d77c
0,          6,          6,        1,   149760, 0xc31ee8a5
0,          7,          7,        1,   149760, 0x19541295
0,          8,          8,        1,   149760, 0xd050be45
0,          9,          9,        1,   149760, 0x45cf8e84
0,         10,         10,        1,   149760, 0x0dd3e4d4
0,         11,         11,        1,   149760, 0xc8347a7c
0,         12,         12,        1,   149760, 0x24089674
0,         13,         13,        1,   149760, 0xdf2c44e4
0,         14,         14,        1,   149760, 0x83f5100b
0,         15,         15,        1,   149760, 0x9a060faf
0,         16,         16,        1,   149760, 0x4cdc6101
0,         17,         17,        1,   149760, 0xe492ad68
0,         18,         18,        1,   149760, 0x35b73887
0,         19,         19,        1,   149760, 0x259f898a
0,         20,         20,        1,   149760, 0x21df021b
0,         21,         21,        1,   149760, 0xdddc1cfe
0,         22,         22,        1,   149760, 0x53841bf5
0,         23,         23,        1,   149760, 0x16745d74
0,         24,         24,        1,   149760, 0x66e79e6a
0,         25,         25,        1,   149760, 0x35f04b5a
0,         26,         26,        1,   149760, 0x1472eee7
0,         27,         27,        1,   149760, 0x42d0147c
0,         28,         28,        1,   149760, 0x57c9bdc2
0,         29,         29,        1,   149760, 0x20ad4cc7
0,         30,         30,        1,   149760, 0x1617ef6c
0,         31,         31,        1,   149760, 0xccdf4da2
0,         32,         32,        1,   149760, 0xc173b762
0,         33,         33,        1,   149760, 0xe7390c69
0,         34,         34,        1,   149760, 0xfd0c97d3
0,         35,         35,        1,   149760, 0xaeb2d61f
0,         36,         36,        1,   149760, 0xe7b114d2
0,         37,         37,        1,   149760, 0x1b771de4
0,         38,         38,        1,   149760, 0xd3e03840
0,         39,         39,        1,   149760, 0x702ef44b
0,         40,         40,        1,   149760, 0xe96f848b
0,         41,         41,        1,   149760, 0xa0ae24d9
0,         42,         42,        1,   149760, 0x1b9efdfb
0,         43,         43,        1,   149760, 0xceac9bc7
0,         44,         44,        1,   149760, 0x73078700
0,         45,         45,        1,   149760, 0xa736637e
0,         46,         46,        1,   149760, 0xbd353c9d
0,         47,         47,        1,   149760, 0x750a23ba
0,         48,         48,        1,   149760, 0x4144c56e
